<svg width="24" height="24" viewBox="0 0 24 24" fill="none" xmlns="http://www.w3.org/2000/svg">
<path d="M11.293 5.55005L12 6.25805L12.707 5.55105C13.1705 5.08342 13.7219 4.71195 14.3294 4.45798C14.9369 4.204 15.5886 4.07252 16.247 4.07108C16.9055 4.06963 17.5577 4.19826 18.1663 4.44957C18.7749 4.70089 19.3279 5.06994 19.7935 5.53553C20.2591 6.00113 20.6282 6.5541 20.8795 7.16271C21.1308 7.77131 21.2594 8.42356 21.258 9.08201C21.2565 9.74046 21.125 10.3921 20.8711 10.9996C20.6171 11.6071 20.2456 12.1585 19.778 12.622L12.708 19.693C12.6151 19.786 12.5048 19.8598 12.3834 19.9101C12.262 19.9604 12.1319 19.9863 12.0005 19.9863C11.8691 19.9863 11.739 19.9604 11.6176 19.9101C11.4962 19.8598 11.3859 19.786 11.293 19.693L4.222 12.622C3.74801 12.16 3.37048 11.6084 3.11132 10.9993C2.85217 10.3902 2.71653 9.73571 2.71229 9.07378C2.70805 8.41186 2.83529 7.75567 3.08662 7.1433C3.33795 6.53093 3.70837 5.97456 4.1764 5.50646C4.64443 5.03837 5.20075 4.66786 5.81309 4.41645C6.42542 4.16503 7.08159 4.0377 7.74352 4.04185C8.40545 4.04599 9.05996 4.18153 9.6691 4.44061C10.2782 4.69968 10.8299 5.07712 11.292 5.55105L11.293 5.55005Z" fill="white"/>
</svg>
